# xmcd
#
# Track frame offsets: 
#        150
#        13502
#        27525
#        39757
#        52127
#        65902
#        79850
#        94015
#        107625
#        122260
#        136742
#        150730
#        164515
#        178422
#        193277
#        206850
#        221632
#        236382
#        250550
#        264322
#        278262
#        292620
#        306765
#        321485
#
# Disc length: 4476 seconds
#
# Revision: 0
# Processed by: cddbd v1.5.1PL0 Copyright (c) Steve Scherf et al.
# Submitted via: ExactAudioCopy v0.95a5
#
DISCID=53117a18
DTITLE=Maggie Jone - Maggie Jones Complete Recorded Works in Chronolog
DTITLE=ical Order Vol. 1
DYEAR=1923
DGENRE=Blues
TTITLE0=Do It A Long Time Papa
TTITLE1=I Just Want A Daddy
TTITLE2=You Can't Do What My Last Man Did
TTITLE3=Don't Never Tell Nobody What Your Good Man Can Do
TTITLE4=You Don't Know My Mind
TTITLE5=You Don't Know My Mind
TTITLE6=Good-Bye Blues
TTITLE7=Good-Bye Blues
TTITLE8=Four Flushing Papa (What Kind A Man Is You)
TTITLE9=Jealous Mama Blues
TTITLE10=Box Car Blues
TTITLE11=Western Union Blues
TTITLE12=Poor House Blues
TTITLE13=Anybody Here Want To Try My Cabbage
TTITLE14=Thunderstorm Blues
TTITLE15=If I Lose, Let Me Lose (Mamma Don't Mind)
TTITLE16=Screamin' The Blues
TTITLE17=Good Time Flat Blues
TTITLE18=You May Go, But You'll Come Back Some Day
TTITLE19=Early Every Morn' (I Want My Lovin')
TTITLE20=Dangerous Blues
TTITLE21=Suicide Blues
TTITLE22=Undertaker's Blues
TTITLE23=North Bound Blues
EXTD=
EXTT0=
EXTT1=
EXTT2=
EXTT3=
EXTT4=
EXTT5=
EXTT6=
EXTT7=
EXTT8=
EXTT9=
EXTT10=
EXTT11=
EXTT12=
EXTT13=
EXTT14=
EXTT15=
EXTT16=
EXTT17=
EXTT18=
EXTT19=
EXTT20=
EXTT21=
EXTT22=
EXTT23=
PLAYORDER=
